<svg xmlns="http://www.w3.org/2000/svg" viewBox="0 0 800 900" fill="none">
  <defs>
    <linearGradient id="bg" x1="0" y1="0" x2="1" y2="1">
      <stop offset="0%" stop-color="#18233d"/>
      <stop offset="100%" stop-color="#0c1222"/>
    </linearGradient>
  </defs>
  <rect width="800" height="900" rx="40" fill="url(#bg)"/>
  <circle cx="640" cy="160" r="180" fill="#ff5a1f" opacity="0.18"/>
  <circle cx="120" cy="760" r="160" fill="#2dd4bf" opacity="0.12"/>
  <!-- phone card -->
  <rect x="180" y="160" width="440" height="620" rx="36" fill="#121a2f" stroke="rgba(255,255,255,0.12)" stroke-width="2"/>
  <circle cx="400" cy="220" r="28" fill="#ff5a1f"/>
  <path d="M388 220h12l6-10 4 20 5-10h9" stroke="#fff" stroke-width="2.5" stroke-linecap="round" stroke-linejoin="round"/>
  <text x="400" y="290" text-anchor="middle" fill="#f4f7fb" font-family="Helvetica,Arial,sans-serif" font-size="28" font-weight="700">Live call</text>
  <text x="400" y="325" text-anchor="middle" fill="#9aabbf" font-family="Helvetica,Arial,sans-serif" font-size="16">Gatekeeper · Apex Logistics</text>
  <rect x="220" y="370" width="280" height="70" rx="18" fill="rgba(255,255,255,0.06)" stroke="rgba(255,255,255,0.08)"/>
  <text x="240" y="412" fill="#f4f7fb" font-family="Helvetica,Arial,sans-serif" font-size="15">Thanks for calling — how can I help?</text>
  <rect x="300" y="460" width="260" height="70" rx="18" fill="rgba(255,90,31,0.18)" stroke="rgba(255,90,31,0.35)"/>
  <text x="318" y="502" fill="#f4f7fb" font-family="Helvetica,Arial,sans-serif" font-size="15">Is Jordan available for websites?</text>
  <rect x="220" y="550" width="320" height="56" rx="14" fill="rgba(45,212,191,0.12)" stroke="rgba(45,212,191,0.28)"/>
  <text x="240" y="584" fill="#2dd4bf" font-family="Helvetica,Arial,sans-serif" font-size="14">Coach: Name + reason, then ask cleanly.</text>
  <!-- waveform -->
  <g fill="#ff5a1f" transform="translate(300,660)">
    <rect x="0" y="20" width="8" height="20" rx="2"/><rect x="16" y="8" width="8" height="32" rx="2"/><rect x="32" y="14" width="8" height="26" rx="2"/><rect x="48" y="4" width="8" height="36" rx="2"/><rect x="64" y="16" width="8" height="24" rx="2"/><rect x="80" y="10" width="8" height="30" rx="2"/><rect x="96" y="18" width="8" height="22" rx="2"/><rect x="112" y="6" width="8" height="34" rx="2"/><rect x="128" y="14" width="8" height="26" rx="2"/><rect x="144" y="20" width="8" height="20" rx="2"/>
  </g>
  <text x="400" y="740" text-anchor="middle" fill="#9aabbf" font-family="Helvetica,Arial,sans-serif" font-size="14">Live AI voice</text>
</svg>
